<svg width="188" height="140" fill="none" xmlns="http://www.w3.org/2000/svg"><g clip-path="url(#clip0_418_275)" fill="#fff"><path d="M81.691 62.268c-3.984-1.795-9.218-2.682-15.722-2.682h-5.384l1.12-12.544h27.374V34.778H48.976l-3.382 37.136h16.8c4.006 0 7.129.346 9.347 1.038 2.218.692 3.769 1.709 4.652 3.028.883 1.32 1.314 2.834 1.314 4.52 0 2.704-1.099 4.802-3.295 6.316-2.197 1.514-5.191 2.271-9.003 2.271-3.382 0-6.72-.54-9.993-1.6-3.296-1.06-6.182-2.51-8.68-4.348L40.727 94.84c3.188 2.271 7.021 4.001 11.501 5.234a50.9 50.9 0 0013.569 1.839c6.245 0 11.393-1.017 15.442-3.072 4.027-2.033 7.021-4.715 8.96-8.002 1.938-3.31 2.907-6.9 2.907-10.793 0-3.893-.904-7.375-2.714-10.468-1.809-3.071-4.716-5.515-8.68-7.31m16.886 35.924h-.948v7.03h.948v-7.03zm.216-2.249a.637.637 0 00-.194-.476.68.68 0 00-.496-.194.68.68 0 00-.495.194.637.637 0 00-.194.476c0 .195.065.346.194.476a.68.68 0 00.495.195.68.68 0 00.496-.195.687.687 0 00.194-.497m5.814 3.071c.668 0 1.185.194 1.551.562.366.39.56.952.56 1.687v4.001h.948v-4.087c0-.671-.129-1.233-.366-1.688a2.255 2.255 0 00-1.013-.994c-.43-.217-.926-.325-1.507-.325-.689 0-1.271.152-1.745.433a2.51 2.51 0 00-.926.973v-1.34h-.904v7.028h.947v-3.698c0-.541.108-.995.302-1.363.194-.39.495-.67.861-.865a2.716 2.716 0 011.292-.303m19.772 2.228v4.001h.948v-4.087c0-.671-.108-1.233-.345-1.687a2.21 2.21 0 00-.991-.995c-.43-.217-.926-.325-1.486-.325-.732 0-1.356.173-1.873.52-.41.28-.69.627-.905 1.038-.172-.433-.388-.8-.754-1.06-.474-.346-1.055-.52-1.744-.52-.646 0-1.206.152-1.68.433-.388.238-.668.584-.883.974v-1.32h-.905v7.029h.948v-3.698c0-.541.086-.995.28-1.384.194-.39.474-.67.818-.865a2.606 2.606 0 011.249-.303c.647 0 1.142.195 1.508.562.345.39.539.952.539 1.687v4.001h.947v-3.698c0-.541.086-.995.28-1.384.194-.39.452-.67.819-.865a2.541 2.541 0 011.249-.303c.646 0 1.141.195 1.486.562.344.39.538.952.538 1.687m7.861 2.833v1.168h.905v-4.369c0-.908-.237-1.6-.732-2.054-.496-.455-1.185-.67-2.111-.67a4.7 4.7 0 00-1.572.259c-.496.173-.926.389-1.271.692l.431.714c.28-.238.624-.455 1.033-.606.41-.151.84-.238 1.293-.238.667 0 1.163.151 1.486.476.323.324.495.778.495 1.384v.433h-2.218c-.668 0-1.206.086-1.594.281-.388.194-.689.432-.861.735a1.951 1.951 0 00-.259.995c0 .411.108.757.302 1.06.215.303.495.541.883.735.387.173.84.26 1.357.26.667 0 1.227-.13 1.658-.411.323-.216.581-.498.754-.822m-2.262.476c-.56 0-.99-.108-1.314-.368a1.191 1.191 0 01-.473-.973c0-.368.129-.649.387-.887.259-.238.733-.368 1.4-.368h2.197v1.147c-.172.454-.452.822-.84 1.059-.388.238-.84.368-1.378.368m5.944-7.916v1.557h-1.249v.8h1.249v4.262c0 .648.172 1.167.538 1.513.345.368.862.541 1.53.541.28 0 .538-.043.818-.13.258-.086.495-.216.668-.367l-.323-.692a1.55 1.55 0 01-1.034.367c-.388 0-.689-.108-.905-.324-.215-.216-.323-.541-.323-.952v-4.217h2.132v-.8h-2.132v-1.558h-.969zm10.704 7.527l-.538-.627a2.31 2.31 0 01-.948.692 3.135 3.135 0 01-1.184.238c-.539 0-1.034-.108-1.443-.346a2.477 2.477 0 01-.991-.952 2.612 2.612 0 01-.323-1.168h5.858v-.303c0-.713-.151-1.319-.452-1.86a3.222 3.222 0 00-1.206-1.254c-.517-.303-1.099-.454-1.767-.454-.667 0-1.227.151-1.766.454a3.325 3.325 0 00-1.227 1.276c-.302.541-.453 1.146-.453 1.838 0 .692.151 1.32.474 1.86.323.541.754.974 1.293 1.276.56.303 1.184.455 1.916.455.56 0 1.077-.108 1.551-.303a2.753 2.753 0 001.163-.865m-5.147-3.937c.215-.41.517-.713.883-.93a2.603 2.603 0 011.292-.324c.474 0 .926.108 1.292.324.366.217.668.541.883.93.173.325.259.692.302 1.082h-4.954c.043-.39.129-.757.28-1.082m8.486-.562v-1.406h-.905v7.029h.948v-3.59c0-.822.215-1.471.624-1.925.41-.454.991-.67 1.745-.67h.215v-.93c-.689 0-1.27.151-1.723.432-.409.238-.689.606-.883 1.06m4.803-2.985a.683.683 0 00.496-.194.688.688 0 00.194-.498.638.638 0 00-.194-.476.683.683 0 00-.496-.194.68.68 0 00-.495.194.673.673 0 00-.194.476c0 .173.065.346.194.476a.68.68 0 00.495.195m.474 1.578h-.948v7.03h.948v-7.03zm7.021 5.883v1.168h.905v-4.369c0-.908-.237-1.6-.732-2.054-.496-.455-1.185-.67-2.111-.67a4.7 4.7 0 00-1.572.259c-.496.173-.926.389-1.271.692l.431.714c.28-.238.624-.455 1.034-.606a3.697 3.697 0 011.292-.238c.667 0 1.163.151 1.486.476.323.324.495.778.495 1.384v.433h-2.218c-.668 0-1.206.086-1.594.281-.388.194-.689.432-.861.735a1.951 1.951 0 00-.259.995c0 .411.108.757.302 1.06.215.303.495.541.883.735.387.173.84.26 1.357.26.667 0 1.227-.13 1.658-.411.323-.216.581-.498.754-.822m-2.262.476c-.56 0-.99-.108-1.313-.368a1.19 1.19 0 01-.474-.973c0-.368.129-.649.387-.887.259-.238.733-.368 1.4-.368h2.197v1.147c-.172.454-.452.822-.84 1.059-.388.238-.84.368-1.378.368m6.741-9.257h-.948v9.949h.948v-9.949zm-63.729 26.041v-4.369c0-.93-.237-1.601-.733-2.055-.495-.454-1.184-.67-2.11-.67-.56 0-1.077.086-1.573.238-.495.173-.926.389-1.292.713l.43.714c.28-.259.625-.454 1.035-.605.409-.152.84-.217 1.292-.217.668 0 1.163.152 1.486.476.345.324.495.779.495 1.384v.433h-2.218c-.668 0-1.206.086-1.594.281-.387.195-.689.433-.861.735a1.96 1.96 0 00-.259.995c0 .411.108.757.302 1.06.194.303.495.541.883.714.388.173.84.259 1.378.259.668 0 1.228-.129 1.659-.411.344-.216.581-.497.753-.821v1.167h.905l.022-.021zm-1.788-1.06c-.388.238-.84.368-1.378.368-.539 0-.991-.108-1.314-.368-.323-.238-.474-.562-.474-.973 0-.346.13-.649.388-.887s.732-.368 1.4-.368h2.196v1.147c-.172.475-.452.821-.84 1.059m10.834 1.082v-4.088c0-.692-.129-1.254-.366-1.687a2.258 2.258 0 00-1.012-.995c-.431-.216-.927-.324-1.508-.324-.668 0-1.249.151-1.745.432-.409.238-.689.584-.926.974v-1.341h-.904v7.029h.947v-3.699c0-.54.108-.995.302-1.362.194-.39.495-.671.861-.865.367-.195.797-.303 1.314-.303.668 0 1.185.195 1.551.562.366.389.56.93.56 1.687v4.001h.947l-.021-.021zm8.055-1.449v1.427h.904v-9.949h-.947v4.282c-.28-.432-.603-.778-1.012-1.016-.474-.281-1.034-.411-1.637-.411-.668 0-1.271.151-1.788.454a3.174 3.174 0 00-1.249 1.255c-.302.54-.452 1.168-.452 1.881 0 .714.15 1.32.452 1.86a3.37 3.37 0 001.249 1.276c.539.303 1.12.455 1.788.455.624 0 1.184-.13 1.658-.433.431-.26.775-.627 1.055-1.081m-2.649.648c-.495 0-.926-.108-1.313-.346a2.372 2.372 0 01-.927-.973c-.236-.411-.344-.887-.344-1.449s.108-1.038.344-1.449c.237-.411.539-.735.927-.952.387-.238.84-.346 1.313-.346.474 0 .948.108 1.336.346.387.238.71.541.926.952.237.411.344.887.344 1.449s-.107 1.017-.344 1.449a2.681 2.681 0 01-.926.973c-.388.238-.84.346-1.336.346zm-12.556 15.811l-2.24-5.97h-.818l-2.262 5.97-2.197-5.97h-.904l2.649 7.03h.883l2.24-5.775 2.197 5.775h.904l2.649-7.03h-.861l-2.24 5.97zm9.024-5.58c-.538-.303-1.163-.454-1.852-.454-.689 0-1.292.151-1.831.454-.538.303-.947.735-1.27 1.254a3.72 3.72 0 00-.474 1.86c0 .714.151 1.32.474 1.86.323.541.732.974 1.27 1.276.539.303 1.142.455 1.831.455a3.79 3.79 0 001.852-.455c.539-.302.97-.735 1.271-1.276.302-.54.452-1.168.452-1.86 0-.692-.15-1.319-.452-1.86a3.22 3.22 0 00-1.271-1.254zm.431 4.563a2.676 2.676 0 01-.926.974c-.388.237-.84.346-1.357.346s-.926-.109-1.314-.346c-.387-.238-.71-.541-.926-.974-.237-.411-.344-.886-.344-1.449 0-.562.107-1.038.344-1.449.237-.411.539-.735.926-.952.388-.237.84-.346 1.336-.346.495 0 .947.109 1.335.346.388.217.711.541.926.952.215.411.345.887.345 1.449 0 .563-.108 1.017-.345 1.449zm4.157-3.547v-1.406h-.905v7.03h.948v-3.591c0-.843.215-1.47.624-1.925.41-.454.991-.67 1.745-.67h.215v-.93c-.689 0-1.27.151-1.723.432-.409.238-.689.606-.883 1.06m10.618-1.406h-1.163l-4.2 3.829v-6.748h-.947v9.949h.947v-2.012l1.659-1.535 2.821 3.547h1.163l-3.274-4.153 2.994-2.877zm11.846.26c-.431-.216-.926-.325-1.486-.325-.733 0-1.357.173-1.874.52a2.78 2.78 0 00-.905 1.038c-.172-.433-.409-.801-.753-1.06-.474-.346-1.056-.519-1.745-.519-.689 0-1.206.151-1.68.432a2.492 2.492 0 00-.883.952v-1.319h-.905v7.029h.948v-3.699c0-.54.086-.994.28-1.384a1.99 1.99 0 01.819-.865 2.537 2.537 0 011.249-.303c.646 0 1.141.195 1.486.563.366.389.538.93.538 1.687v4.001h.948v-3.699c0-.54.086-.994.28-1.384.194-.389.474-.67.818-.865a2.542 2.542 0 011.249-.303c.647 0 1.142.195 1.486.563.345.389.517.93.517 1.687v4.001h.948v-4.088c0-.67-.108-1.233-.345-1.687a2.212 2.212 0 00-.99-.995m6.375-.302c-.56 0-1.077.086-1.573.237-.495.173-.926.39-1.292.714l.431.714c.28-.26.624-.454 1.034-.606a3.71 3.71 0 011.292-.238c.668 0 1.163.173 1.486.476.345.325.495.779.495 1.384v.433h-2.218c-.668 0-1.206.087-1.594.281-.387.195-.689.433-.861.736a1.948 1.948 0 00-.259.994c0 .411.108.757.302 1.06.194.303.495.541.883.714.388.173.84.26 1.378.26.668 0 1.228-.13 1.659-.411.344-.217.581-.498.753-.822v1.168h.905v-4.369c0-.93-.237-1.601-.732-2.055-.496-.454-1.185-.67-2.111-.67m1.055 6.055c-.387.238-.84.368-1.378.368-.538 0-.991-.108-1.314-.368-.323-.259-.474-.562-.474-.973 0-.346.13-.649.388-.887.259-.237.732-.367 1.4-.367h2.197v1.146c-.172.476-.452.822-.84 1.06m9.498-5.71c-.431-.216-.926-.324-1.508-.324-.667 0-1.27.151-1.744.432a2.504 2.504 0 00-.926.973v-1.341h-.905v7.03h.948v-3.699c0-.541.108-.995.301-1.384.194-.389.496-.671.862-.865a2.712 2.712 0 011.292-.303c.668 0 1.185.195 1.551.562.366.39.56.93.56 1.687v4.002h.947v-4.088c0-.671-.129-1.233-.366-1.687a2.253 2.253 0 00-1.012-.995zm7.818 3.352c-.28-.13-.56-.238-.904-.303-.345-.064-.646-.151-.97-.194a5.46 5.46 0 01-.904-.217c-.28-.086-.495-.194-.646-.346-.173-.151-.237-.367-.237-.627 0-.346.151-.605.452-.843.302-.217.754-.325 1.4-.325.345 0 .711.044 1.077.152.345.086.689.238 1.012.454l.409-.757c-.301-.195-.667-.346-1.12-.476a5.834 5.834 0 00-1.356-.173c-.603 0-1.099.087-1.508.26-.409.173-.732.411-.948.713a1.75 1.75 0 00-.323 1.038c0 .39.086.714.237.974.172.238.388.432.646.562.259.13.56.238.883.324.323.065.646.13.991.195.323.065.625.13.905.195.258.086.473.194.646.346.172.151.237.346.237.605 0 .347-.151.628-.431.844-.302.216-.775.324-1.443.324-.495 0-.969-.086-1.4-.238a3.728 3.728 0 01-1.098-.562l-.431.757c.301.238.689.454 1.206.627s1.055.238 1.637.238c.603 0 1.141-.086 1.572-.238.431-.173.754-.389.991-.692.237-.303.344-.649.344-1.06 0-.389-.086-.692-.237-.93a1.74 1.74 0 00-.646-.54m7.667-3.439c-.43-.216-.926-.324-1.507-.324-.668 0-1.271.151-1.745.432-.387.216-.667.541-.883.909v-4.175h-.948v9.949h.948v-3.698c0-.541.108-.995.302-1.384.193-.39.495-.671.861-.865a2.712 2.712 0 011.292-.303c.668 0 1.185.194 1.551.562.366.389.56.93.56 1.687v4.001h.948v-4.087c0-.671-.13-1.233-.366-1.687a2.25 2.25 0 00-1.013-.995m4.89-.282h-.948v7.03h.948v-7.03zm-.453-2.92a.679.679 0 00-.495.195.638.638 0 00-.194.476c0 .195.065.346.194.476s.301.194.495.194a.682.682 0 00.496-.194.688.688 0 00.193-.498.64.64 0 00-.193-.476.686.686 0 00-.496-.194m9.757 4.585a3.174 3.174 0 00-1.25-1.254 3.539 3.539 0 00-1.787-.454c-.625 0-1.163.129-1.659.41-.43.238-.775.606-1.055 1.06v-1.406h-.904v9.647h.947v-3.98c.28.433.603.779 1.034 1.017a3.248 3.248 0 001.637.432c.668 0 1.271-.151 1.787-.454a3.322 3.322 0 001.25-1.254c.301-.541.452-1.168.452-1.882s-.151-1.319-.452-1.86m-.84 3.309a2.681 2.681 0 01-.926.973c-.388.238-.84.346-1.336.346-.495 0-.947-.108-1.335-.346s-.711-.54-.926-.973c-.237-.411-.345-.887-.345-1.449s.108-1.017.345-1.428c.237-.411.538-.735.926-.973s.84-.346 1.335-.346c.496 0 .948.108 1.336.346.387.238.71.562.926.973.237.411.344.887.344 1.428 0 .541-.107 1.016-.344 1.449zm-112.792-7.375l-2.52.151.216 3.871-3.855 7.332 2.498-.151 2.65-5.018 3.165 4.694 2.693-.152-4.631-6.813-.216-3.914zm-15.679-.779l-.258 2.033 5.901.735-.302 2.509-5.04-.627-.236 1.968 5.018.628-.28 2.357-5.707-.714-.237 2.033 8.184 1.017 1.335-10.901-8.378-1.038zm-1.163 0l-2.434-.779-1.658 1.947-4.824-1.557-.194-2.531-2.52-.822 1.292 11.961 2.37.778 7.99-8.91-.022-.087zm-8.378 6.164l-.366-4.52 3.295 1.081-2.95 3.461.021-.022zm-7.43-8.889l-1.939-1.06s-.064-.022-.107-.043l-.367-3.699-2.39-1.319.452 4.261h-.021c-.776-.065-1.465.065-2.09.389-.624.325-1.12.844-1.529 1.557-.387.714-.581 1.428-.517 2.142.043.713.302 1.384.776 1.989.474.628 1.12 1.168 1.981 1.644l4.135 2.293 5.299-9.603-2.219-1.233-1.464 2.682zm-2.822 5.126l-1.809-.995c-.69-.368-1.12-.8-1.292-1.276-.173-.476-.108-.995.172-1.514.28-.519.69-.844 1.185-.952.495-.108 1.098.022 1.766.411l1.809.995-1.852 3.352.021-.021zm-10.058-18.471a8.518 8.518 0 00-1.938-1.384 7.235 7.235 0 00-2.197-.714l-3.08 3.201 1.659 1.622 2.218-2.292c.172.043.366.108.517.173a4.77 4.77 0 011.227.843c.367.368.668.757.862 1.19.194.411.302.865.302 1.298 0 .454-.065.886-.237 1.319a3.513 3.513 0 01-.797 1.19 3.997 3.997 0 01-1.185.843 3.09 3.09 0 01-1.292.281c-.452 0-.883-.086-1.314-.281a3.408 3.408 0 01-1.206-.843 4.124 4.124 0 01-.883-1.277 3.744 3.744 0 01-.28-1.578l-2.218-.044a5.078 5.078 0 00.43 2.379c.323.779.84 1.493 1.551 2.185a7.1 7.1 0 002.003 1.384c.71.303 1.443.476 2.197.476a5.7 5.7 0 002.154-.411c.689-.281 1.313-.735 1.895-1.319a5.277 5.277 0 001.25-1.947c.258-.714.387-1.427.344-2.163-.022-.735-.216-1.47-.539-2.184-.323-.714-.797-1.363-1.421-1.968m-6.095-4.694c.215-1.211-.108-2.465-.991-3.741-.883-1.277-1.917-2.034-3.123-2.271-1.206-.238-2.477.108-3.79 1.016l-5.04 3.482 1.421 2.077 4.954-3.439c.861-.584 1.593-.844 2.218-.757.625.086 1.142.454 1.572 1.103.431.627.582 1.254.453 1.881-.13.606-.625 1.212-1.486 1.817l-4.954 3.439 1.443 2.098 5.04-3.482c1.313-.909 2.089-1.968 2.304-3.201M17.08 96.051l-2.542.044-2.003-4.672 1.766-1.817-1.056-2.444-8.098 8.846.991 2.314 11.975.152-1.034-2.401v-.022zm-4.61.065l-4.523.065 3.166-3.266 1.379 3.201h-.022zm.215-12.133l-2.972.649-.473-2.163s-.022-.065-.044-.108l2.542-2.726-.582-2.681-.064.065-.065-2.553-2.369-.93-.108-5.082 2.326-1.017-.064-2.66L0 69.946l.065 2.509 11.005 4.628-2.8 3.028a3.646 3.646 0 00-1.658-1.34c-.646-.26-1.378-.303-2.175-.109-.797.173-1.443.52-1.96 1.017a3.684 3.684 0 00-.99 1.903c-.173.757-.13 1.622.064 2.574l1.012 4.65 10.682-2.336-.538-2.487h-.022zM6.741 72.8L2.52 71.157l4.135-1.838.086 3.482zm-3.037 9.214c.237-.455.668-.736 1.25-.865.581-.13 1.076-.044 1.486.259.409.303.71.843.861 1.6l.43 2.034-3.725.821-.43-2.011c-.173-.757-.13-1.384.107-1.817m7.732-20.308l-6.526-1.19 7.495-4.195.366-2.055-10.769-1.946-.43 2.465 6.525 1.19L.581 60.17l-.366 2.076 10.748 1.947.452-2.466zM5.966 46.955l8.292 3.158.904-2.38-8.292-3.157 1.228-3.266-1.917-.735L2.8 49.507l1.917.736 1.249-3.288zm15.141-10.619l-1.767-1.039-2.993 5.17-2.176-1.277 2.542-4.412-1.68-.995-2.563 4.413-2.046-1.212 2.886-4.974-1.745-1.038-4.156 7.18 9.433 5.515 4.265-7.331zm6.375-7.786l-1.55-1.298-3.813 4.563-1.938-1.622 3.252-3.915-1.508-1.254-3.252 3.893-1.83-1.536 3.704-4.412-1.551-1.32-5.32 6.36 8.378 7.05 5.428-6.51zm8.765-10.036l2.154 1.362 2.175-1.535-10.295-6.121-2.046 1.45 2.348 11.786 2.11-1.514-.56-2.487 4.136-2.941h-.022zm-4.587.908l-.99-4.434 3.833 2.423-2.822 2.011h-.021zm7.861-4.066c.56.52 1.185.887 1.874 1.125.69.238 1.443.346 2.197.303a6.396 6.396 0 002.347-.606 8.356 8.356 0 002.003-1.298 6.708 6.708 0 001.465-1.795l-1.81-4.066-2.11.952 1.314 2.92a3.523 3.523 0 01-.366.432 4.7 4.7 0 01-1.228.822 4.34 4.34 0 01-1.4.368 3.286 3.286 0 01-1.314-.195c-.43-.173-.797-.39-1.12-.714a4.013 4.013 0 01-.818-1.19 3.846 3.846 0 01-.345-1.405c0-.454.065-.909.216-1.32.172-.41.409-.8.732-1.124a3.944 3.944 0 011.228-.822c.495-.216 1.012-.346 1.529-.346.517 0 1.034.108 1.572.324l.861-2.033c-.732-.346-1.529-.497-2.369-.476-.84.022-1.701.238-2.584.628a7.24 7.24 0 00-2.025 1.362 5.546 5.546 0 00-1.249 1.86 5.296 5.296 0 00-.409 2.163c0 .757.194 1.514.517 2.25.345.757.775 1.384 1.335 1.881M53.176 10.9l4.932-1.124 1.464 2.076 2.585-.584-7.172-9.624-2.434.562-2.326 11.788 2.52-.584.43-2.51zm3.747-2.833l-3.381.779.775-4.477 2.628 3.698h-.022zM64.564.328l-2.51.214.924 10.926 2.511-.214L64.564.328zm6.014 4.127l5.04 6.965 2.067.13.646-10.966-2.476-.13-.41 6.64L70.427.13 68.338 0l-.646 10.966 2.498.13.388-6.64zm12.664 8.608c1.012.26 1.896.325 2.628.173.732-.13 1.335-.41 1.787-.822.453-.41.754-.908.905-1.513.13-.563.15-1.039 0-1.471-.13-.433-.366-.8-.668-1.103-.301-.325-.667-.584-1.077-.844a34.521 34.521 0 00-1.227-.692c-.41-.216-.797-.41-1.12-.605-.345-.195-.603-.39-.775-.628a.836.836 0 01-.173-.735c.065-.238.173-.433.345-.562.172-.152.43-.238.754-.26.323-.043.732 0 1.206.13.474.108.947.303 1.4.584.452.26.904.605 1.335.995l1.228-1.687a6.036 6.036 0 00-1.53-1.147 8.574 8.574 0 00-1.916-.735c-1.013-.26-1.874-.303-2.606-.173-.733.13-1.336.411-1.788.822a3.02 3.02 0 00-.904 1.536c-.151.562-.151 1.06 0 1.492.129.432.366.8.667 1.103.302.303.668.606 1.077.843.41.26.818.476 1.228.693.409.216.796.41 1.12.605.344.195.603.411.775.627a.865.865 0 01.172.757c-.064.217-.172.411-.366.541-.194.13-.43.216-.754.238-.323.022-.732-.022-1.206-.151-.646-.152-1.249-.433-1.809-.779-.56-.368-1.034-.757-1.421-1.211l-1.293 1.643c.388.476.926.93 1.659 1.363.71.433 1.507.736 2.347.952m7.926-7.267l3.23 1.384-3.489 8.176 2.326 1.016 3.49-8.197 3.208 1.384.819-1.903-8.766-3.763-.818 1.903zm16.519 18.968c.991.195 1.938.13 2.843-.195.904-.324 1.701-.93 2.369-1.817.689-.886 1.077-1.795 1.163-2.768a5.373 5.373 0 00-.517-2.812c-.431-.908-1.12-1.752-2.068-2.465l-3.919-3.072-6.72 8.674 3.92 3.07c.926.736 1.895 1.19 2.886 1.407m.624-9.906l1.831 1.427c.581.454.991.952 1.249 1.493.259.562.345 1.124.259 1.708-.087.584-.323 1.147-.754 1.709-.431.54-.905.93-1.465 1.146a3.04 3.04 0 01-1.701.173c-.603-.108-1.185-.39-1.745-.843l-1.83-1.428 4.156-5.364v-.021zm7.776 19.725l1.529-1.341-3.92-4.499 1.895-1.665 3.338 3.828 1.487-1.298-3.339-3.828 1.788-1.579 3.769 4.347 1.529-1.34-5.427-6.251-8.228 7.224 5.579 6.402zm2.175 3.46l3.402-2.098 2.65 4.326 1.723-1.06-2.65-4.326 2.456-1.535 2.993 4.91 1.745-1.06-4.329-7.073-9.304 5.753 1.314 2.163zm6.698 13.994l1.895-.779-2.218-5.537 2.347-.951 1.896 4.736 1.809-.735-1.874-4.737 2.197-.886 2.132 5.363 1.895-.757-3.079-7.7-10.145 4.088 3.145 7.895zm7.969-.346a5.903 5.903 0 00-2.305 0c-.797.173-1.507.454-2.132.886a5.253 5.253 0 00-1.508 1.58 5.715 5.715 0 00-.775 2.097c-.129.757-.108 1.557.065 2.401.194.93.517 1.752 1.012 2.444s1.077 1.233 1.809 1.6l1.142-1.903c-.496-.281-.905-.627-1.207-1.038a3.586 3.586 0 01-.603-1.406 4.037 4.037 0 01-.043-1.427 3.43 3.43 0 01.474-1.233 3 3 0 01.948-.93c.387-.26.84-.433 1.335-.54a4.088 4.088 0 011.443-.044c.452.086.862.238 1.228.497.366.238.667.563.926.952.237.39.431.822.517 1.341.107.52.107 1.038 0 1.536-.108.497-.345.973-.689 1.427l1.787 1.298a5.119 5.119 0 001.034-2.185c.172-.822.151-1.687-.043-2.638-.172-.844-.452-1.58-.883-2.228a5.776 5.776 0 00-1.529-1.622 5.188 5.188 0 00-2.003-.865zm3.338 14.512l-8.873.303.086 2.53 8.873-.28.108 3.503 2.067-.065-.323-9.56-2.046.065.108 3.504zm-.668 13.777a5.88 5.88 0 01-.84 1.45l1.809 1.016c.388-.476.69-1.016.948-1.665a8.958 8.958 0 00.495-1.99c.13-1.017.087-1.903-.129-2.617-.215-.714-.56-1.276-1.034-1.687a2.884 2.884 0 00-1.636-.714c-.582-.065-1.077 0-1.465.173a2.829 2.829 0 00-1.012.8 5.28 5.28 0 00-.711 1.168c-.194.433-.388.865-.538 1.298a17.46 17.46 0 01-.474 1.19c-.151.367-.323.648-.539.843a.787.787 0 01-.732.26c-.237-.022-.409-.13-.581-.303-.151-.173-.259-.411-.324-.736-.064-.324-.064-.735 0-1.232.087-.65.28-1.276.56-1.904.302-.605.625-1.124 1.034-1.557l-1.787-1.103c-.431.433-.819 1.038-1.142 1.817a9.48 9.48 0 00-.668 2.466c-.129 1.038-.086 1.925.13 2.638.215.714.56 1.276 1.033 1.687.453.411.991.65 1.616.736.56.064 1.055 0 1.443-.174a2.827 2.827 0 001.012-.8c.28-.346.495-.735.689-1.168.194-.432.366-.865.517-1.319.151-.433.323-.844.474-1.19.151-.367.323-.648.517-.843a.75.75 0 01.711-.26c.237.022.43.13.603.282.172.151.28.389.366.735a3.26 3.26 0 010 1.211 6.206 6.206 0 01-.388 1.47"/></g><defs><clipPath id="clip0_418_275"><path fill="#fff" d="M0 0h188v140H0z"/></clipPath></defs></svg>